<svg width="964" height="266" viewBox="0 0 964 266" fill="none" xmlns="http://www.w3.org/2000/svg">
<path d="M0.457031 205V0.654297H40.5938V83.125H126.873V0.654297H167.01V205H126.873V115.498H40.5938V205H0.457031ZM224.285 265.059C216.229 265.059 208.465 264.18 202.752 262.422V230.781C206.561 231.807 210.662 232.539 215.203 232.539C226.482 232.539 231.756 227.412 235.711 216.133L240.252 202.949L188.25 55.8789H228.826L261.639 161.641L294.305 55.8789H334.734L275.408 224.775C266.473 250.264 250.799 265.059 224.285 265.059ZM418.23 208.809C375.018 208.809 345.867 176.729 345.867 130.439C345.867 85.3223 372.527 52.0703 416.912 52.0703C459.393 52.0703 486.785 81.5137 486.785 128.975V140.84H385.418C386.443 162.227 399.041 176.729 419.549 176.729C433.172 176.729 446.355 171.309 449.285 159.297H485.32C479.754 189.033 453.094 208.809 418.23 208.809ZM447.381 113.301C446.062 95.8691 434.197 84.1504 416.619 84.1504C398.309 84.1504 387.176 96.0156 385.418 113.301H447.381ZM512.273 205V55.8789H549.627V75.9473C558.123 61.1523 572.771 52.0703 588.738 52.0703C608.514 52.0703 623.748 60.4199 631.805 77.7051C641.18 61.7383 657.146 52.0703 676.336 52.0703C707.391 52.0703 725.115 73.75 725.115 104.805V205H686.297V118.135C686.297 95.5762 678.387 84.5898 662.859 84.5898C648.504 84.5898 638.104 95.4297 638.104 118.574V205H599.285V118.135C599.285 95.5762 591.375 84.5898 575.701 84.5898C560.467 84.5898 551.092 95.7227 551.092 118.574V205H512.273ZM760.271 205V55.8789H799.09V205H760.271ZM760.125 38.3008V0.654297H799.236V38.3008H760.125ZM835.125 205V55.8789H872.479V76.2402C879.803 61.2988 896.355 52.0703 913.494 52.0703C944.256 52.0703 963.445 72.5781 963.445 109.053V205H924.627V117.695C924.627 95.5762 915.105 84.5898 899.432 84.5898C883.904 84.5898 873.943 95.7227 873.943 117.695V205H835.125Z" fill="black"/>
</svg>
