<svg width="803" height="222" viewBox="0 0 803 222" fill="none" xmlns="http://www.w3.org/2000/svg">
<path d="M0.380859 171V0.711914H33.8281V69.4375H105.728V0.711914H139.175V171H105.728V96.415H33.8281V171H0.380859ZM186.904 221.049C180.19 221.049 173.721 220.316 168.96 218.852V192.484C172.134 193.339 175.552 193.949 179.336 193.949C188.735 193.949 193.13 189.677 196.426 180.277L200.21 169.291L156.875 46.7324H190.688L218.032 134.867L245.254 46.7324H278.945L229.507 187.479C222.061 208.72 208.999 221.049 186.904 221.049ZM348.525 174.174C312.515 174.174 288.223 147.44 288.223 108.866C288.223 71.2686 310.439 43.5586 347.427 43.5586C382.827 43.5586 405.654 68.0947 405.654 107.646V117.533H321.182C322.036 135.355 332.534 147.44 349.624 147.44C360.977 147.44 371.963 142.924 374.404 132.914H404.434C399.795 157.694 377.578 174.174 348.525 174.174ZM372.817 94.584C371.719 80.0576 361.831 70.292 347.183 70.292C331.924 70.292 322.646 80.1797 321.182 94.584H372.817ZM426.895 171V46.7324H458.022V63.4561C465.103 51.127 477.31 43.5586 490.615 43.5586C507.095 43.5586 519.79 50.5166 526.504 64.9209C534.316 51.6152 547.622 43.5586 563.613 43.5586C589.492 43.5586 604.263 61.625 604.263 87.5039V171H571.914V98.6123C571.914 79.8135 565.322 70.6582 552.383 70.6582C540.42 70.6582 531.753 79.6914 531.753 98.9785V171H499.404V98.6123C499.404 79.8135 492.812 70.6582 479.751 70.6582C467.056 70.6582 459.243 79.9355 459.243 98.9785V171H426.895ZM633.56 171V46.7324H665.908V171H633.56ZM633.438 32.084V0.711914H666.03V32.084H633.438ZM695.938 171V46.7324H727.065V63.7002C733.169 51.249 746.963 43.5586 761.245 43.5586C786.88 43.5586 802.871 60.6484 802.871 91.0439V171H770.522V98.2461C770.522 79.8135 762.588 70.6582 749.526 70.6582C736.587 70.6582 728.286 79.9355 728.286 98.2461V171H695.938Z" fill="black"/>
</svg>
