<svg width="1285" height="354" viewBox="0 0 1285 354" fill="none" xmlns="http://www.w3.org/2000/svg">
<path d="M0.609375 273V0.539062H54.125V110.5H169.164V0.539062H222.68V273H169.164V153.664H54.125V273H0.609375ZM299.047 353.078C288.305 353.078 277.953 351.906 270.336 349.562V307.375C275.414 308.742 280.883 309.719 286.938 309.719C301.977 309.719 309.008 302.883 314.281 287.844L320.336 270.266L251 74.1719H305.102L348.852 215.188L392.406 74.1719H446.312L367.211 299.367C355.297 333.352 334.398 353.078 299.047 353.078ZM557.641 278.078C500.023 278.078 461.156 235.305 461.156 173.586C461.156 113.43 496.703 69.0938 555.883 69.0938C612.523 69.0938 649.047 108.352 649.047 171.633V187.453H513.891C515.258 215.969 532.055 235.305 559.398 235.305C577.562 235.305 595.141 228.078 599.047 212.062H647.094C639.672 251.711 604.125 278.078 557.641 278.078ZM596.508 150.734C594.75 127.492 578.93 111.867 555.492 111.867C531.078 111.867 516.234 127.688 513.891 150.734H596.508ZM683.031 273V74.1719H732.836V100.93C744.164 81.2031 763.695 69.0938 784.984 69.0938C811.352 69.0938 831.664 80.2266 842.406 103.273C854.906 81.9844 876.195 69.0938 901.781 69.0938C943.188 69.0938 966.82 98 966.82 139.406V273H915.062V157.18C915.062 127.102 904.516 112.453 883.812 112.453C864.672 112.453 850.805 126.906 850.805 157.766V273H799.047V157.18C799.047 127.102 788.5 112.453 767.602 112.453C747.289 112.453 734.789 127.297 734.789 157.766V273H683.031ZM1013.7 273V74.1719H1065.45V273H1013.7ZM1013.5 50.7344V0.539062H1065.65V50.7344H1013.5ZM1113.5 273V74.1719H1163.3V101.32C1173.07 81.3984 1195.14 69.0938 1217.99 69.0938C1259.01 69.0938 1284.59 96.4375 1284.59 145.07V273H1232.84V156.594C1232.84 127.102 1220.14 112.453 1199.24 112.453C1178.54 112.453 1165.26 127.297 1165.26 156.594V273H1113.5Z" fill="black"/>
</svg>
