<svg width="643" height="178" viewBox="0 0 643 178" fill="none" xmlns="http://www.w3.org/2000/svg">
<path d="M0.304688 137V0.769531H27.0625V55.75H84.582V0.769531H111.34V137H84.582V77.332H27.0625V137H0.304688ZM149.523 177.039C144.152 177.039 138.977 176.453 135.168 175.281V154.188C137.707 154.871 140.441 155.359 143.469 155.359C150.988 155.359 154.504 151.941 157.141 144.422L160.168 135.633L125.5 37.5859H152.551L174.426 108.094L196.203 37.5859H223.156L183.605 150.184C177.648 167.176 167.199 177.039 149.523 177.039ZM278.82 139.539C250.012 139.539 230.578 118.152 230.578 87.293C230.578 57.2148 248.352 35.0469 277.941 35.0469C306.262 35.0469 324.523 54.6758 324.523 86.3164V94.2266H256.945C257.629 108.484 266.027 118.152 279.699 118.152C288.781 118.152 297.57 114.539 299.523 106.531H323.547C319.836 126.355 302.062 139.539 278.82 139.539ZM298.254 75.8672C297.375 64.2461 289.465 56.4336 277.746 56.4336C265.539 56.4336 258.117 64.3438 256.945 75.8672H298.254ZM341.516 137V37.5859H366.418V50.9648C372.082 41.1016 381.848 35.0469 392.492 35.0469C405.676 35.0469 415.832 40.6133 421.203 52.1367C427.453 41.4922 438.098 35.0469 450.891 35.0469C471.594 35.0469 483.41 49.5 483.41 70.2031V137H457.531V79.0898C457.531 64.0508 452.258 56.7266 441.906 56.7266C432.336 56.7266 425.402 63.9531 425.402 79.3828V137H399.523V79.0898C399.523 64.0508 394.25 56.7266 383.801 56.7266C373.645 56.7266 367.395 64.1484 367.395 79.3828V137H341.516ZM506.848 137V37.5859H532.727V137H506.848ZM506.75 25.8672V0.769531H532.824V25.8672H506.75ZM556.75 137V37.5859H581.652V51.1602C586.535 41.1992 597.57 35.0469 608.996 35.0469C629.504 35.0469 642.297 48.7188 642.297 73.0352V137H616.418V78.7969C616.418 64.0508 610.07 56.7266 599.621 56.7266C589.27 56.7266 582.629 64.1484 582.629 78.7969V137H556.75Z" fill="black"/>
</svg>
